<?xml version="1.0" encoding="iso-8859-1"?>
<!-- Generator: Adobe Illustrator 19.0.0, SVG Export Plug-In . SVG Version: 6.00 Build 0)  -->
<svg version="1.1" id="Capa_1" xmlns="http://www.w3.org/2000/svg" xmlns:xlink="http://www.w3.org/1999/xlink" x="0px" y="0px"
	 viewBox="0 0 480 480" style="enable-background:new 0 0 480 480;" xml:space="preserve">
<g>
	<path style="fill:#695A69;" d="M323.077,313.846h-9.231v-7.231c0-1.104-0.895-2-2-2h-60.615c-1.105,0-2,0.896-2,2v7.231H146.11
		c-1.216-3.44-3.091-6.567-5.475-9.231c-5.071-5.664-12.435-9.231-20.635-9.231s-15.565,3.567-20.635,9.231
		c-2.385,2.664-4.259,5.791-5.475,9.231h-3.164c-1.216-3.44-3.091-6.567-5.475-9.231c-5.071-5.664-12.435-9.231-20.635-9.231
		s-15.565,3.567-20.635,9.231c-2.385,2.664-4.259,5.791-5.475,9.231H18.461v9.231h18.461c0,15.294,12.398,27.692,27.692,27.692
		s27.692-12.398,27.692-27.692c0,15.294,12.398,27.692,27.692,27.692c15.294,0,27.692-12.398,27.692-27.692h101.539v7.231
		c0,1.104,0.895,2,2,2h60.615c1.105,0,2-0.896,2-2v-7.231h27.692v-9.231H323.077z M64.615,341.539
		c-10.196,0-18.461-8.266-18.461-18.462s8.265-18.462,18.461-18.462s18.461,8.266,18.461,18.462S74.811,341.539,64.615,341.539z
		 M120,341.539c-10.196,0-18.462-8.266-18.462-18.462s8.265-18.462,18.462-18.462c10.196,0,18.461,8.266,18.461,18.462
		S130.196,341.539,120,341.539z"/>
	<path style="fill:#E17277;" d="M85.25,304.615h14.114c5.071-5.664,12.435-9.231,20.635-9.231H64.615
		C72.815,295.385,80.18,298.952,85.25,304.615z"/>
	<path style="fill:#E17277;" d="M64.615,295.385H11.231c-1.105,0-2-0.895-2-2v-5.231c0-1.104,0.895-2,2-2h300.615
		c1.105,0,2,0.896,2,2v5.231c0,1.105-0.895,2-2,2H120c8.2,0,15.564,3.567,20.635,9.231h110.595h60.615h11.231V193.846v-64.615H0
		v175.385h43.98C49.051,298.952,56.415,295.385,64.615,295.385z M9.231,140.461c0-1.104,0.895-2,2-2h300.615c1.105,0,2,0.896,2,2
		v5.231c0,1.104-0.895,2-2,2H11.231c-1.105,0-2-0.896-2-2V140.461z M9.231,158.923c0-1.105,0.895-2,2-2h300.615c1.105,0,2,0.895,2,2
		v5.231c0,1.104-0.895,2-2,2H11.231c-1.105,0-2-0.896-2-2V158.923z M9.231,177.385c0-1.104,0.895-2,2-2h300.615c1.105,0,2,0.896,2,2
		v5.231c0,1.105-0.895,2-2,2H11.231c-1.105,0-2-0.895-2-2V177.385z M9.231,195.846c0-1.104,0.895-2,2-2h300.615c1.105,0,2,0.896,2,2
		v5.231c0,1.104-0.895,2-2,2H11.231c-1.105,0-2-0.896-2-2V195.846z M9.231,214.308c0-1.104,0.895-2,2-2h300.615c1.105,0,2,0.896,2,2
		v5.231c0,1.104-0.895,2-2,2H11.231c-1.105,0-2-0.896-2-2V214.308z M9.231,232.769c0-1.105,0.895-2,2-2h300.615c1.105,0,2,0.895,2,2
		V238c0,1.104-0.895,2-2,2H11.231c-1.105,0-2-0.896-2-2V232.769z M9.231,251.231c0-1.104,0.895-2,2-2h300.615c1.105,0,2,0.896,2,2
		v5.231c0,1.105-0.895,2-2,2H11.231c-1.105,0-2-0.895-2-2V251.231z M9.231,269.692c0-1.105,0.895-2,2-2h300.615c1.105,0,2,0.895,2,2
		v5.231c0,1.104-0.895,2-2,2H11.231c-1.105,0-2-0.896-2-2V269.692z"/>
	<path style="fill:#826E77;" d="M90.726,313.846h3.164c1.216-3.44,3.09-6.567,5.475-9.231H85.25
		C87.635,307.279,89.51,310.406,90.726,313.846z"/>
	<path style="fill:#826E77;" d="M146.11,313.846h103.12v-7.231c0-1.104,0.895-2,2-2H140.635
		C143.02,307.279,144.894,310.406,146.11,313.846z"/>
	<path style="fill:#826E77;" d="M43.98,304.615H0v9.231h18.461h20.043C39.721,310.406,41.595,307.279,43.98,304.615z"/>
	<path style="fill:#A08A8A;" d="M472.345,254.634L443.077,240h-13.846h-28.308c-2.209,0-4-1.791-4-4v-28.308v-13.846h46.154h4.615
		v-9.231h-4.615h-9.231h-36.923h-55.385v9.231v110.769h51.134c6.387-11.026,18.283-18.461,31.943-18.461s25.556,7.436,31.943,18.461
		h14.211v-32.923c0-2.209,1.791-4,4-4H480v-0.673C480,261.774,477.036,256.98,472.345,254.634z M387.692,295.385h-36.923V193.846
		h36.923V295.385z"/>
	<path style="fill:#826E77;" d="M456.558,304.615c-6.387-11.026-18.283-18.461-31.943-18.461s-25.556,7.436-31.943,18.461h-51.134
		h-18.462h-11.231c1.105,0,2,0.896,2,2v7.231h9.231h18.462v9.231v9.231h47.364h9.603c-1.021-2.888-1.582-5.993-1.582-9.231
		c0-15.294,12.398-27.692,27.692-27.692s27.692,12.398,27.692,27.692c0,3.238-0.561,6.343-1.582,9.231h9.603H480v-27.692h-9.231
		H456.558z"/>
	<path style="fill:#DFD0C6;" d="M64.615,304.615c-10.196,0-18.461,8.266-18.461,18.462s8.265,18.462,18.461,18.462
		s18.461-8.266,18.461-18.462S74.811,304.615,64.615,304.615z M64.615,332.308c-5.098,0-9.231-4.133-9.231-9.231
		s4.133-9.231,9.231-9.231c5.098,0,9.231,4.133,9.231,9.231S69.713,332.308,64.615,332.308z"/>
	<circle style="fill:#C8B2A8;" cx="64.615" cy="323.077" r="9.231"/>
	<path style="fill:#DFD0C6;" d="M120,304.615c-10.196,0-18.462,8.266-18.462,18.462s8.265,18.462,18.462,18.462
		c10.196,0,18.461-8.266,18.461-18.462S130.196,304.615,120,304.615z M120,332.308c-5.098,0-9.231-4.133-9.231-9.231
		s4.133-9.231,9.231-9.231c5.098,0,9.231,4.133,9.231,9.231S125.098,332.308,120,332.308z"/>
	<circle style="fill:#C8B2A8;" cx="120" cy="323.077" r="9.231"/>
	<path style="fill:#695A69;" d="M424.615,295.385c-15.294,0-27.692,12.398-27.692,27.692c0,3.238,0.561,6.343,1.582,9.231
		c3.802,10.754,14.054,18.462,26.11,18.462c12.057,0,22.308-7.707,26.11-18.462c1.021-2.888,1.582-5.993,1.582-9.231
		C452.308,307.783,439.909,295.385,424.615,295.385z M424.615,341.539c-10.196,0-18.461-8.266-18.461-18.462
		s8.265-18.462,18.461-18.462s18.461,8.266,18.461,18.462S434.811,341.539,424.615,341.539z"/>
	<path style="fill:#DFD0C6;" d="M443.077,323.077c0-10.196-8.265-18.462-18.461-18.462s-18.461,8.266-18.461,18.462
		s8.265,18.462,18.461,18.462S443.077,333.273,443.077,323.077z M415.385,323.077c0-5.098,4.133-9.231,9.231-9.231
		c5.098,0,9.231,4.133,9.231,9.231s-4.133,9.231-9.231,9.231C419.517,332.308,415.385,328.175,415.385,323.077z"/>
	<circle style="fill:#C8B2A8;" cx="424.615" cy="323.077" r="9.231"/>
	<path style="fill:#95FFFF;" d="M396.923,236c0,2.209,1.791,4,4,4h28.308l-32.308-32.308V236z"/>
	<path style="fill:#695A69;" d="M470.769,271.692v32.923H480v-36.923h-5.231C472.56,267.692,470.769,269.483,470.769,271.692z"/>
	<path style="fill:#826E77;" d="M433.846,184.615l-18.706-15.589c-5.806-4.838-13.125-7.488-20.683-7.488h-52.918v23.077h55.385
		H433.846z"/>
	<rect x="350.769" y="193.846" style="fill:#826E77;" width="36.923" height="101.538"/>
	<rect x="396.923" y="193.846" style="fill:#6EB1E2;" width="46.154" height="13.846"/>
	<polygon style="fill:#80D7F0;" points="429.231,240 443.077,240 443.077,207.692 396.923,207.692 	"/>
	<rect x="323.077" y="193.846" style="fill:#695A69;" width="18.462" height="110.769"/>
	<path style="fill:#BF515A;" d="M11.231,147.692h300.615c1.105,0,2-0.896,2-2v-5.231c0-1.104-0.895-2-2-2H11.231
		c-1.105,0-2,0.896-2,2v5.231C9.231,146.797,10.126,147.692,11.231,147.692z"/>
	<path style="fill:#BF515A;" d="M11.231,166.154h300.615c1.105,0,2-0.896,2-2v-5.231c0-1.105-0.895-2-2-2H11.231
		c-1.105,0-2,0.895-2,2v5.231C9.231,165.258,10.126,166.154,11.231,166.154z"/>
	<path style="fill:#BF515A;" d="M11.231,184.615h300.615c1.105,0,2-0.895,2-2v-5.231c0-1.104-0.895-2-2-2H11.231
		c-1.105,0-2,0.896-2,2v5.231C9.231,183.72,10.126,184.615,11.231,184.615z"/>
	<path style="fill:#BF515A;" d="M11.231,203.077h300.615c1.105,0,2-0.896,2-2v-5.231c0-1.104-0.895-2-2-2H11.231
		c-1.105,0-2,0.896-2,2v5.231C9.231,202.181,10.126,203.077,11.231,203.077z"/>
	<path style="fill:#BF515A;" d="M11.231,221.539h300.615c1.105,0,2-0.896,2-2v-5.231c0-1.104-0.895-2-2-2H11.231
		c-1.105,0-2,0.896-2,2v5.231C9.231,220.643,10.126,221.539,11.231,221.539z"/>
	<path style="fill:#BF515A;" d="M11.231,240h300.615c1.105,0,2-0.896,2-2v-5.231c0-1.105-0.895-2-2-2H11.231c-1.105,0-2,0.895-2,2
		V238C9.231,239.104,10.126,240,11.231,240z"/>
	<path style="fill:#BF515A;" d="M11.231,258.461h300.615c1.105,0,2-0.895,2-2v-5.231c0-1.104-0.895-2-2-2H11.231
		c-1.105,0-2,0.896-2,2v5.231C9.231,257.566,10.126,258.461,11.231,258.461z"/>
	<path style="fill:#BF515A;" d="M11.231,276.923h300.615c1.105,0,2-0.896,2-2v-5.231c0-1.105-0.895-2-2-2H11.231
		c-1.105,0-2,0.895-2,2v5.231C9.231,276.028,10.126,276.923,11.231,276.923z"/>
	<path style="fill:#BF515A;" d="M313.846,293.385v-5.231c0-1.104-0.895-2-2-2H11.231c-1.105,0-2,0.896-2,2v5.231
		c0,1.105,0.895,2,2,2h53.385H120h191.846C312.951,295.385,313.846,294.489,313.846,293.385z"/>
</g>
<g>
</g>
<g>
</g>
<g>
</g>
<g>
</g>
<g>
</g>
<g>
</g>
<g>
</g>
<g>
</g>
<g>
</g>
<g>
</g>
<g>
</g>
<g>
</g>
<g>
</g>
<g>
</g>
<g>
</g>
</svg>
