<?xml version="1.0"?>
<svg xmlns="http://www.w3.org/2000/svg" xmlns:xlink="http://www.w3.org/1999/xlink" version="1.1" id="Capa_1" x="0px" y="0px" viewBox="0 0 512 512" style="enable-background:new 0 0 512 512;" xml:space="preserve" width="512px" height="512px" class=""><g transform="matrix(1 0 0 1 0 0)"><path style="fill:#F44336;" d="M509.728,311.808l-48-80.032C458.816,226.944,453.632,224,448,224h-80c-8.832,0-16,7.168-16,16v176  h144c8.832,0,16-7.168,16-16v-80C511.232,317.216,510.496,314.592,509.728,311.808z" data-original="#F44336" class=""/><g>
	<polygon style="fill:#FAFAFA;" points="384,256 438.944,256 477.344,320 384,320  " data-original="#FAFAFA" class=""/>
	<circle style="fill:#FAFAFA;" cx="432" cy="400" r="32" data-original="#FAFAFA" class=""/>
</g><path style="fill:#455A64" d="M432,448c-26.464,0-48-21.536-48-48s21.536-48,48-48s48,21.536,48,48S458.464,448,432,448z M432,384  c-8.8,0-16,7.2-16,16s7.2,16,16,16s16-7.2,16-16S440.8,384,432,384z" data-original="#455A64" class=""/><path style="fill:#F44336;" d="M352,416H16c-8.832,0-16-7.168-16-16v-48h352V416z" data-original="#F44336" class=""/><circle style="fill:#FAFAFA;" cx="112" cy="400" r="32" data-original="#FAFAFA" class=""/><path style="fill:#455A64" d="M112,448c-26.464,0-48-21.536-48-48s21.536-48,48-48s48,21.536,48,48S138.464,448,112,448z M112,384  c-8.832,0-16,7.2-16,16s7.168,16,16,16s16-7.2,16-16S120.832,384,112,384z" data-original="#455A64" class=""/><circle style="fill:#19FF00" cx="176" cy="208" r="128" data-original="#FFE082" class="active-path" data-old_color="#00FFBC"/><path style="fill:#19FF00" d="M176,64C96.608,64,32,128.608,32,208s64.608,144,144,144s144-64.608,144-144S255.392,64,176,64z   M286.368,192h-48.032c-2.336-31.168-10.912-61.952-26.976-89.728C250.816,115.52,280.256,149.824,286.368,192z M145.632,192  c2.656-29.952,12.736-59.04,30.368-84.768c17.632,25.728,27.712,54.816,30.368,84.768H145.632z M206.368,224  c-2.656,29.952-12.768,59.04-30.368,84.768c-17.6-25.728-27.712-54.816-30.368-84.768H206.368z M140.64,102.272  C124.576,130.048,116,160.832,113.664,192H65.632C71.744,149.824,101.184,115.52,140.64,102.272z M65.632,224h48.032  c2.368,31.168,10.912,61.952,26.976,89.728C101.184,300.48,71.744,266.176,65.632,224z M211.36,313.728  c16.064-27.776,24.64-58.56,26.976-89.728h48.032C280.256,266.176,250.816,300.48,211.36,313.728z" data-original="#FFC107" class="" data-old_color="#FFC107"/></g> </svg>
