<?xml version="1.0" encoding="iso-8859-1"?>
<!-- Generator: Adobe Illustrator 19.0.0, SVG Export Plug-In . SVG Version: 6.00 Build 0)  -->
<svg version="1.1" id="Capa_1" xmlns="http://www.w3.org/2000/svg" xmlns:xlink="http://www.w3.org/1999/xlink" x="0px" y="0px"
	 viewBox="0 0 512 512" style="enable-background:new 0 0 512 512;" xml:space="preserve">
<g>
	<rect x="154.667" y="105.6" style="fill:#84DBFF;" width="202.667" height="151.467"/>
	<rect x="130.133" y="102.4" style="fill:#84DBFF;" width="24.533" height="154.667"/>
</g>
<rect x="130.133" y="102.4" style="fill:#28B8E5;" width="24.533" height="22.4"/>
<rect x="357.333" y="102.4" style="fill:#84DBFF;" width="24.533" height="154.667"/>
<g>
	<rect x="170.667" y="126.933" style="fill:#54C0EB;" width="21.333" height="108.8"/>
	<rect x="208" y="126.933" style="fill:#54C0EB;" width="21.333" height="108.8"/>
	<rect x="245.333" y="126.933" style="fill:#54C0EB;" width="21.333" height="108.8"/>
	<rect x="282.667" y="126.933" style="fill:#54C0EB;" width="21.333" height="108.8"/>
	<rect x="320" y="126.933" style="fill:#54C0EB;" width="21.333" height="108.8"/>
</g>
<ellipse style="fill:#FFFFFF;" cx="142.933" cy="114.133" rx="5.333" ry="5.333"/>
<rect x="357.333" y="102.4" style="fill:#28B8E5;" width="24.533" height="22.4"/>
<g>
	<ellipse style="fill:#FFFFFF;" cx="369.067" cy="114.133" rx="5.333" ry="5.333"/>
	<ellipse style="fill:#FFFFFF;" cx="142.933" cy="241.067" rx="5.333" ry="5.333"/>
	<ellipse style="fill:#FFFFFF;" cx="369.067" cy="241.067" rx="5.333" ry="5.333"/>
</g>
<g>
	<path style="fill:#54C0EB;" d="M283.733,116.267L283.733,116.267c0-1.067-1.067-2.133-2.133-2.133h-12.8
		c-1.067,0-2.133,1.067-2.133,2.133l0,0c0,1.067,1.067,2.133,2.133,2.133h12.8C282.667,119.467,283.733,118.4,283.733,116.267z"/>
	<path style="fill:#54C0EB;" d="M283.733,247.467L283.733,247.467c0-1.067-1.067-2.133-2.133-2.133h-12.8
		c-1.067,0-2.133,1.067-2.133,2.133l0,0c0,1.067,1.067,2.133,2.133,2.133h12.8C282.667,249.6,283.733,248.533,283.733,247.467z"/>
</g>
<g>
	<rect x="24.533" y="258.133" style="fill:#F2F2F2;" width="202.667" height="151.467"/>
	<rect y="253.867" style="fill:#F2F2F2;" width="24.533" height="154.667"/>
</g>
<rect y="253.867" style="fill:#ACB3BA;" width="24.533" height="22.4"/>
<rect x="227.2" y="253.867" style="fill:#F2F2F2;" width="24.533" height="154.667"/>
<g>
	<rect x="40.533" y="279.467" style="fill:#CDD6E0;" width="21.333" height="108.8"/>
	<rect x="77.867" y="279.467" style="fill:#CDD6E0;" width="21.333" height="108.8"/>
	<rect x="115.2" y="279.467" style="fill:#CDD6E0;" width="21.333" height="108.8"/>
	<rect x="152.533" y="279.467" style="fill:#CDD6E0;" width="21.333" height="108.8"/>
	<rect x="189.867" y="279.467" style="fill:#CDD6E0;" width="21.333" height="108.8"/>
</g>
<ellipse style="fill:#F2F2F2;" cx="12.8" cy="265.6" rx="5.333" ry="5.333"/>
<rect x="227.2" y="253.867" style="fill:#ACB3BA;" width="24.533" height="22.4"/>
<ellipse style="fill:#F2F2F2;" cx="238.933" cy="265.6" rx="5.333" ry="5.333"/>
<g>
	<ellipse style="fill:#ACB3BA;" cx="12.8" cy="392.533" rx="5.333" ry="5.333"/>
	<ellipse style="fill:#ACB3BA;" cx="238.933" cy="392.533" rx="5.333" ry="5.333"/>
</g>
<g>
	<path style="fill:#CDD6E0;" d="M153.6,268.8L153.6,268.8c0-1.067-1.067-2.133-2.133-2.133h-12.8c-1.067,0-2.133,1.067-2.133,2.133
		l0,0c0,1.067,1.067,2.133,2.133,2.133h12.8C152.533,270.933,153.6,269.867,153.6,268.8z"/>
	<path style="fill:#CDD6E0;" d="M153.6,398.933L153.6,398.933c0-1.067-1.067-2.133-2.133-2.133h-12.8
		c-1.067,0-2.133,1.067-2.133,2.133l0,0c0,1.067,1.067,2.133,2.133,2.133h12.8C152.533,401.067,153.6,400,153.6,398.933z"/>
</g>
<g>
	<rect x="284.8" y="258.133" style="fill:#FFD15C;" width="202.667" height="151.467"/>
	<rect x="260.267" y="253.867" style="fill:#FFD15C;" width="24.533" height="154.667"/>
</g>
<rect x="260.267" y="253.867" style="fill:#F8B64C;" width="24.533" height="22.4"/>
<rect x="487.467" y="253.867" style="fill:#FFD15C;" width="24.533" height="154.667"/>
<g>
	<rect x="300.8" y="279.467" style="fill:#FF7058;" width="21.333" height="108.8"/>
	<rect x="338.133" y="279.467" style="fill:#FF7058;" width="21.333" height="108.8"/>
	<rect x="375.467" y="279.467" style="fill:#FF7058;" width="21.333" height="108.8"/>
	<rect x="412.8" y="279.467" style="fill:#FF7058;" width="21.333" height="108.8"/>
	<rect x="450.133" y="279.467" style="fill:#FF7058;" width="21.333" height="108.8"/>
</g>
<ellipse style="fill:#40596B;" cx="273.067" cy="265.6" rx="5.333" ry="5.333"/>
<rect x="487.467" y="253.867" style="fill:#F8B64C;" width="24.533" height="22.4"/>
<g>
	<ellipse style="fill:#40596B;" cx="499.2" cy="265.6" rx="5.333" ry="5.333"/>
	<ellipse style="fill:#40596B;" cx="273.067" cy="392.533" rx="5.333" ry="5.333"/>
	<ellipse style="fill:#40596B;" cx="499.2" cy="392.533" rx="5.333" ry="5.333"/>
</g>
<g>
	<path style="fill:#FF7058;" d="M413.867,268.8L413.867,268.8c0-1.067-1.067-2.133-2.133-2.133h-12.8
		c-1.067,0-2.133,1.067-2.133,2.133l0,0c0,1.067,1.067,2.133,2.133,2.133h12.8C412.8,270.933,413.867,269.867,413.867,268.8z"/>
	<path style="fill:#FF7058;" d="M413.867,398.933L413.867,398.933c0-1.067-1.067-2.133-2.133-2.133h-12.8
		c-1.067,0-2.133,1.067-2.133,2.133l0,0c0,1.067,1.067,2.133,2.133,2.133h12.8C412.8,401.067,413.867,400,413.867,398.933z"/>
</g>
<g>
</g>
<g>
</g>
<g>
</g>
<g>
</g>
<g>
</g>
<g>
</g>
<g>
</g>
<g>
</g>
<g>
</g>
<g>
</g>
<g>
</g>
<g>
</g>
<g>
</g>
<g>
</g>
<g>
</g>
</svg>
