<?xml version="1.0" encoding="iso-8859-1"?>
<!-- Generator: Adobe Illustrator 18.1.1, SVG Export Plug-In . SVG Version: 6.00 Build 0)  -->
<svg xmlns="http://www.w3.org/2000/svg" xmlns:xlink="http://www.w3.org/1999/xlink" version="1.1" id="Capa_1" x="0px" y="0px" viewBox="0 0 485.771 485.771" style="enable-background:new 0 0 485.771 485.771;" xml:space="preserve" width="512px" height="512px">
<g>
	<g id="Icons_48_">
		<g>
			<path d="M148.425,12.798c-79.046,0-143.352,64.307-143.352,143.351c0,79.045,64.306,143.351,143.352,143.351     c13.614,0,26.748-2.031,39.241-5.595l27.07-139.128c4.013-20.561,22.124-35.476,43.064-35.476h28.997     C270.468,58.084,214.705,12.798,148.425,12.798z M148.425,46.71c10.275,0,28.322,26.378,34.551,74.804     c-10.325,1.542-21.626,2.619-34.551,2.619c-12.91,0-24.213-1.076-34.521-2.619C120.116,73.089,138.148,46.71,148.425,46.71z      M37.963,155.637c0.045-9.027,1.284-17.767,3.396-26.166c9.893,7.508,22.77,13.535,37.478,17.984     c-0.065,2.896-0.176,5.796-0.176,8.693c0,10.163,0.56,20.32,1.525,30.306C60.192,179.403,44.37,167.662,37.963,155.637z      M52.503,210.733c10.421,5.035,21.806,8.999,33.688,11.961c2.649,11.054,5.973,21.452,10.017,30.764     C77.937,243.615,62.794,228.731,52.503,210.733z M81.662,113.617c-14.354-5.333-23.347-11.602-26.46-16.475     c10.162-16.008,24.261-29.279,41.006-38.303C89.338,74.654,84.488,93.536,81.662,113.617z M111.624,154.487L111.624,154.487     C111.621,154.616,111.619,154.671,111.624,154.487z M148.425,265.589c-7.13,0-18.015-12.949-26.14-36.84     c8.862,0.843,17.662,1.283,26.14,1.283c8.492,0,17.276-0.44,26.153-1.283C166.439,252.639,155.553,265.589,148.425,265.589z      M182.464,194.62c-10.823,1.582-22.207,2.53-34.039,2.53c-11.833,0-23.218-0.948-34.009-2.53     c-1.663-11.457-2.722-26.026-2.75-40.127c11.962,1.658,24.376,2.524,36.759,2.524c12.428,0,24.838-0.868,36.831-2.53     c0,0.586,0.065,1.076,0.065,1.662C185.322,170.424,184.132,183.011,182.464,194.62z M215.218,113.617     c-2.857-20.072-7.707-38.963-14.58-54.77c16.762,9.025,30.861,22.295,41.009,38.303     C238.531,102.023,229.541,108.283,215.218,113.617z" fill="#006DF0"/>
			<path d="M442.768,279.078l-10.309-0.088c-4.607-0.042-8.702-2.932-10.273-7.26L381.53,159.442     c-1.574-4.361-5.714-7.258-10.356-7.258H257.801c-5.268,0-9.796,3.731-10.792,8.902L208.04,361.31h-33.508H22.172     C9.923,361.31,0,371.239,0,383.481c0,12.252,9.923,22.181,22.172,22.181h148.121h42.47h46.724h27.375     c1.767-47.381,40.591-85.459,88.391-85.459s86.624,38.078,88.392,85.459h11.11c6.085,0,11.016-4.929,11.016-11.005v-72.238     C485.769,298.626,466.579,279.269,442.768,279.078z M371.478,239.21c-0.979,1.323-2.536,2.103-4.189,2.103h-94.236     c-1.54,0-3.003-0.674-3.997-1.855c-0.995-1.173-1.431-2.729-1.172-4.246l7.867-47.2c0.418-2.519,2.601-4.374,5.171-4.374h72.494     c2.328,0,4.369,1.534,5.026,3.765l13.874,47.19C372.795,236.173,372.474,237.884,371.478,239.21z" fill="#006DF0"/>
			<path d="M375.251,344.866c-35.323,0-64.047,28.735-64.047,64.058c0,35.315,28.724,64.048,64.047,64.048     c35.31,0,64.05-28.733,64.05-64.048C439.301,373.602,410.561,344.866,375.251,344.866z M375.251,440.091     c-17.195,0-31.165-13.979-31.165-31.166c0-17.189,13.97-31.173,31.165-31.173c17.197,0,31.166,13.984,31.166,31.173     C406.417,426.111,392.448,440.091,375.251,440.091z" fill="#006DF0"/>
		</g>
	</g>
</g>
<g>
</g>
<g>
</g>
<g>
</g>
<g>
</g>
<g>
</g>
<g>
</g>
<g>
</g>
<g>
</g>
<g>
</g>
<g>
</g>
<g>
</g>
<g>
</g>
<g>
</g>
<g>
</g>
<g>
</g>
</svg>
