<?xml version="1.0" encoding="iso-8859-1"?>
<!-- Generator: Adobe Illustrator 19.0.0, SVG Export Plug-In . SVG Version: 6.00 Build 0)  -->
<svg xmlns="http://www.w3.org/2000/svg" xmlns:xlink="http://www.w3.org/1999/xlink" version="1.1" id="Layer_1" x="0px" y="0px" viewBox="0 0 512.005 512.005" style="enable-background:new 0 0 512.005 512.005;" xml:space="preserve" width="512px" height="512px">
<g>
	<g>
		<g>
			<path d="M440.888,64.609l-181.333-64c-2.292-0.813-4.812-0.813-7.104,0l-181.333,64c-4.26,1.51-7.115,5.542-7.115,10.063v128     c0,165.646,24.563,226.188,187.198,308.188c1.51,0.76,3.156,1.146,4.802,1.146c1.646,0,3.292-0.385,4.802-1.146     c162.635-82,187.198-142.542,187.198-308.188v-128C448.003,70.151,445.148,66.12,440.888,64.609z M426.669,202.672     c0,158.656-20.229,210.01-170.667,286.708C105.565,412.682,85.336,361.328,85.336,202.672V82.224l170.667-60.24l170.667,60.24     V202.672z" fill="#91DC5A"/>
			<path d="M245.336,138.672v11.746c-24.314,4.956-42.667,26.5-42.667,52.254c0,29.406,23.927,53.333,53.333,53.333     c17.646,0,32,14.354,32,32c0,17.646-14.354,32-32,32h-42.667c-5.896,0-10.667,4.771-10.667,10.667     c0,5.896,4.771,10.667,10.667,10.667h32v10.667c0,5.896,4.771,10.667,10.667,10.667c5.896,0,10.667-4.771,10.667-10.667v-11.746     c24.314-4.956,42.667-26.5,42.667-52.254c0-29.406-23.927-53.333-53.333-53.333c-17.646,0-32-14.354-32-32     c0-17.646,14.354-32,32-32h42.667c5.896,0,10.667-4.771,10.667-10.667c0-5.896-4.771-10.667-10.667-10.667h-32v-10.667     c0-5.896-4.771-10.667-10.667-10.667C250.107,128.005,245.336,132.776,245.336,138.672z" fill="#91DC5A"/>
		</g>
	</g>
</g>
<g>
</g>
<g>
</g>
<g>
</g>
<g>
</g>
<g>
</g>
<g>
</g>
<g>
</g>
<g>
</g>
<g>
</g>
<g>
</g>
<g>
</g>
<g>
</g>
<g>
</g>
<g>
</g>
<g>
</g>
</svg>
